<?xml version="1.0" encoding="UTF-8"?>
<svg class="4b-logo-round" xmlns="http://www.w3.org/2000/svg" viewBox="0 0 440.76 440.76">
  <path class="4b-logo-slice" d="M134.76,246.9c-5.74,3.54-18.22,3.06-25.76,3.22-8.64-.25-26.56,1.2-31.02-5.49-1.46-2.53-.99-6.55-.38-9.75,5.01-23.56,22.23-103.85,27.54-128.62.64-2.8,1.45-6,2.99-8.03,4.78-6.6,30.79-5.33,38.53-2.82,8.97,2.7,5.71,10.96,5.19,19.61-.33,3.11-.66,6.2-1,9.46-1.25,11.79-2.51,23.67-3.8,35.77-2.51,23.62-4.75,44.73-7.08,66.68-1.15,7.05-.23,16.04-5.13,19.93l-.08.05Z"/>
  <path class="4b-logo-slice" d="M334.15,184.68c6.93,2.18,6.01,9.33,7.92,16.19,7.89,37.73,23.11,110.29,27.13,129.64.4,2.34.51,5.06-.97,6.79-1.63,2.33-8.59,3.24-12.44,3.2-6.63.05-16.32,0-25.06.02-8.98-.48-25.2,2.22-28.89-6.42-4.55-24.61-13.24-114.03-16.66-138.9-.26-2-.24-4.2.37-5.95,2.8-7.21,16.04-5.82,23.82-6.06,7.75.06,18.83-.4,24.68,1.45l.11.04Z"/>
  <path class="4b-logo-slice" d="M141.49,336.59c-2.44-2.13-2.39-5.47-2.24-8.55,5.59-54.82,18.27-176.48,23.19-224.16.56-7.94,3.76-9.19,11.9-9.99,8.52-.84,18.33-.67,26.78,1.31,5.72,1.27,7.88,4.07,8.05,9.13.27,49.93-.02,186.29.07,223.44-.01,2.79-.29,6.12-1.78,8.1-4.21,5.48-21.91,4.53-31.17,4.77-9.53-.26-27.53,1.08-34.74-4l-.06-.05Z"/>
  <path class="4b-logo-slice" d="M259.99,95.16c-7.14-1.42-40.58-4.26-40.89,8.73-.91,37.72.12,195.16,1.43,229.14.87,3.56,2.94,5.5,9.9,6.57,13.52,1.49,31.94,1.37,46.17.38,14.41-.43,13.11-8.78,11.62-19.55-4.99-51.44-15.43-160.26-20.9-216.34-.37-4.49-1.9-7.81-7.32-8.94h0Z"/>
</svg>