<?xml version="1.0" encoding="UTF-8"?>
<svg class="4b-logo-poly" xmlns="http://www.w3.org/2000/svg" viewBox="0 0 440.76 440.76">
  <polygon class="4b-logo-slice" points="137.32 246.52 131.46 250.05 80.96 250.05 76.87 243.63 107.49 96.68 111.96 93.29 147.4 93.29 152.65 98.08 137.32 246.52"/>
  <polygon class="4b-logo-slice" points="333.99 183.19 338.87 186.74 369.54 335.63 366.49 340.52 307.32 340.52 301.76 335.63 285.1 188.97 289.32 183.19 333.99 183.19"/>
  <polygon class="4b-logo-slice" points="138.89 335.29 163.5 95.39 167.17 93.29 204.17 93.29 208.96 98.07 208.94 336.4 203.94 340.52 143.5 340.52 138.89 335.29"/>
  <polygon class="4b-logo-slice" points="261.75 93.29 225.03 93.29 219.32 97.41 220.38 336.3 225.99 340.52 285.1 340.52 289.32 335.63 266.53 97.56 261.75 93.29"/>
</svg>