<?xml version="1.0" encoding="UTF-8"?>
<svg class="4b-logo-sharp" xmlns="http://www.w3.org/2000/svg" viewBox="0 0 440.76 440.76">
  <polygon class="4b-logo-slice" points="333.99 183.19 338.14 183.19 370.55 340.52 366.49 340.52 307.32 340.52 302.32 340.52 284.44 183.19 289.32 183.19 333.99 183.19"/>
  <polygon class="4b-logo-slice" points="138.35 340.52 163.71 93.29 167.17 93.29 204.17 93.29 208.96 93.29 208.94 340.52 203.94 340.52 143.5 340.52 138.35 340.52"/>
  <polygon class="4b-logo-slice" points="261.75 93.29 225.03 93.29 219.3 93.29 220.4 340.52 225.99 340.52 285.1 340.52 289.79 340.52 266.12 93.29 261.75 93.29"/>
  <polygon class="4b-logo-slice" points="153.15 93.29 108.2 93.29 75.54 250.05 80.96 250.05 131.46 250.05 137 250.05 153.15 93.29"/>
</svg>