<?xml version="1.0" encoding="UTF-8"?>
<svg xmlns="http://www.w3.org/2000/svg" viewBox="0 0 300 300">
  <g>
    <rect x="0" width="300" height="300" rx="61" ry="61" fill="white"/>
  </g>
  <g>
    <polygon points="84.74 172.59 80.29 175.27 41.98 175.27 38.88 170.4 62.11 58.91 65.5 56.33 92.39 56.33 96.37 59.97 84.74 172.59"/>
    <polygon points="233.95 124.54 237.66 127.24 260.93 240.2 258.61 243.91 213.72 243.91 209.5 240.2 196.86 128.93 200.06 124.54 233.95 124.54"/>
    <polygon points="85.93 239.94 104.6 57.93 107.38 56.33 135.45 56.33 139.09 59.96 139.08 240.79 135.28 243.91 89.42 243.91 85.93 239.94"/>
    <polygon points="179.14 56.33 151.28 56.33 146.95 59.46 147.76 240.71 152.01 243.91 196.86 243.91 200.06 240.2 182.77 59.57 179.14 56.33"/>
  </g>
</svg>