<?xml version="1.0" encoding="UTF-8"?>
<svg id="Layer_6" data-name="Layer 6" xmlns="http://www.w3.org/2000/svg" viewBox="0 0 300 300">
  <defs>
    <style>
      .cls-1 {
        fill: #fff;
      }
    </style>
  </defs>
  <path class="cls-1" d="M81.78,169.32c-3.77,2.58-11.85,2.06-16.74,2.09-5.6-.3-17.23.57-20.02-4.51-.91-1.92-.55-4.92-.1-7.31,3.59-17.59,15.92-77.51,19.72-96,.45-2.09,1.03-4.47,2.06-5.98,3.19-4.88,20.03-3.61,25.01-1.63,5.77,2.13,3.54,8.28,3.08,14.75-.26,2.32-.52,4.64-.79,7.07-.98,8.82-1.97,17.7-2.98,26.75-1.97,17.67-3.73,33.45-5.56,49.86-.85,5.27-.39,12.01-3.62,14.87l-.05.04Z"/>
  <path class="cls-1" d="M232.66,122.55c4.49,1.64,3.9,6.99,5.14,12.13,5.12,28.27,14.98,82.64,17.58,97.13.26,1.75.33,3.79-.63,5.09-1.06,1.74-5.57,2.43-8.07,2.4-4.3.04-10.57,0-16.24.02-5.82-.36-16.33,1.66-18.73-4.81-2.95-18.44-8.58-85.44-10.8-104.07-.17-1.5-.16-3.15.24-4.46,1.81-5.4,10.39-4.36,15.44-4.54,5.02.05,12.2-.3,16,1.09l.07.03Z"/>
  <path class="cls-1" d="M94.11,236.12c-1.56-1.79-1.49-4.62-1.37-7.23,4.19-46.53,13.65-149.8,17.32-190.27.45-6.73,2.53-7.82,7.82-8.57,5.54-.79,11.9-.73,17.37.88,3.7,1.03,5.07,3.38,5.13,7.67-.33,42.33-1.9,157.96-2.22,189.45-.04,2.36-.25,5.19-1.24,6.88-2.79,4.68-14.27,4.03-20.28,4.32-6.18-.14-17.88,1.15-22.51-3.08l-.04-.04Z"/>
  <path class="cls-1" d="M178.88,55.64c-4.62-1.24-26.3-3.73-26.5,7.63-.59,33,.08,170.72.93,200.44.56,3.11,1.91,4.81,6.42,5.75,8.76,1.3,20.7,1.2,29.92.33,9.34-.38,8.5-7.68,7.53-17.1-3.23-44.99-10-140.18-13.55-189.24-.24-3.93-1.23-6.83-4.74-7.82h0Z"/>
</svg>